Coordinates
version=1
nRows=30
nColumns=19
inDegrees=yes

Units are S.I. units (second, meters, Newtons, ...)
If the header above contains a line with 'inDegrees', this indicates whether rotational values are in degrees (yes) or radians (no).

endheader
time	pelvis_tilt	pelvis_list	pelvis_rotation	pelvis_tx	pelvis_ty	pelvis_tz	hip_flexion_r	hip_adduction_r	hip_rotation_r	knee_angle_r	knee_angle_r_beta	ankle_angle_r	hip_flexion_l	hip_adduction_l	hip_rotation_l	knee_angle_l	knee_angle_l_beta	ankle_angle_l
     15.33333333	     -1.94709252	     -2.69991106	      3.19546739	      2.32892957	      1.07413340	      1.05869852	     23.77750957	      2.65323575	     -6.33643340	     17.96974847	      0.31363128	     -6.89909165	    -12.71183724	     -7.35873790	    -11.51037643	     38.78877532	      0.67699184	    -17.09958450
     15.34000000	     -1.65237871	     -3.04072211	      3.20522505	      2.32876529	      1.07157220	      1.05905142	     23.42645696	      3.08141213	     -6.68458116	     18.23426197	      0.31824791	     -7.08117606	    -12.10397670	     -7.76627738	    -10.09503242	     41.49238141	      0.72417867	    -16.18055331
     15.34666667	     -1.43150633	     -3.35931800	      3.20450798	      2.32845174	      1.06847338	      1.05932246	     23.23720086	      3.46454841	     -6.99838507	     18.91902881	      0.33019934	     -6.94191229	    -11.32053217	     -8.07588827	     -8.61989453	     44.31585743	      0.77345762	    -15.24661545
     15.35333333	     -1.27393013	     -3.62344192	      3.16834870	      2.32794680	      1.06485416	      1.05955144	     23.18814840	      3.78689635	     -7.21709252	     19.99641018	      0.34900320	     -6.40827652	    -10.38201943	     -8.27777555	     -7.19007120	     47.24679556	      0.82461214	    -14.36498783
     15.36000000	     -1.06712192	     -3.90864147	      3.15957458	      2.32734026	      1.06090307	      1.05969557	     23.09368040	      4.13025755	     -7.37406143	     21.32316757	      0.37215948	     -5.49040978	     -9.41519444	     -8.47997989	     -5.79638928	     50.24685970	      0.87697314	    -13.59373805
     15.36666667	     -0.95911560	     -4.14003774	      3.08914811	      2.32653811	      1.05643556	      1.05989452	     23.17578598	      4.43725368	     -7.36875268	     23.00128907	      0.40144823	     -4.14481215	     -8.27551915	     -8.57477732	     -4.48690843	     53.30792024	      0.93039873	    -12.94314364
     15.37333333	     -0.82815478	     -4.39286708	      3.08644255	      2.32561999	      1.05166535	      1.05999758	     23.20774744	      4.76459701	     -7.33687758	     24.81208049	      0.43305250	     -2.38611060	     -7.06960703	     -8.70643751	     -3.22359028	     56.41530978	      0.98463290	    -12.44962605
     15.38000000	     -0.73577593	     -4.64465325	      3.03919930	      2.32454842	      1.04658194	      1.06015071	     23.29586993	      5.12322563	     -7.19445680	     26.80341758	      0.46780789	     -0.30718669	     -5.76907469	     -8.81772308	     -2.06996264	     59.52776316	      1.03895546	    -12.09215482
     15.38666667	     -0.66034800	     -4.89819845	      2.95256229	      2.32329593	      1.04128364	      1.06034416	     23.39782031	      5.52024435	     -6.95786171	     28.89502024	      0.50431324	      1.99384294	     -4.39561281	     -8.92992368	     -1.04009080	     62.62554837	      1.09302201	    -11.83755207
     15.39333333	     -0.58003763	     -5.19128794	      2.88593772	      2.32189440	      1.03591109	      1.06050074	     23.45913734	      5.97358057	     -6.70727355	     30.98521094	      0.54079395	      4.44652011	     -2.96527320	     -9.09444644	     -0.06969917	     65.68325333	      1.14638903	    -11.67596471
     15.40000000	     -0.52904039	     -5.50672620	      2.77737514	      2.32029272	      1.03048247	      1.06063602	     23.53637277	      6.47083074	     -6.42095752	     33.08527513	      0.57744698	      6.92904316	     -1.45824201	     -9.27260799	      0.80984392	     68.68199663	      1.19872698	    -11.50575132
     15.40666667	     -0.43860086	     -5.85827117	      2.65069252	      2.31857210	      1.02521145	      1.06083669	     23.51814311	      7.03149138	     -6.13083559	     35.08928614	      0.61242358	      9.36100430	      0.04141160	     -9.51797435	      1.59494291	     71.57721537	      1.24925808	    -11.31082485
     15.41333333	      0.18883912	     -6.22120351	      2.44126827	      2.31682315	      1.02081911	      1.06103797	     22.80940581	      7.69127839	     -5.71187731	     36.90022694	      0.64403045	     11.72291560	      0.89157757	     -9.85165730	      2.10141703	     74.21536877	      1.29530254	    -11.05249927
     15.42000000	     -0.31609481	     -6.57731032	      2.33442851	      2.31467491	      1.01532825	      1.06106745	     23.38404840	      8.18622357	     -5.49453147	     38.75409730	      0.67638660	     13.75415424	      3.21594488	    -10.06414181	      2.93633565	     77.01422553	      1.34415181	    -10.62398393
     15.42666667	     -0.27191603	     -6.87635512	      2.15526497	      2.31258262	      1.01088211	      1.06112687	     23.23291373	      8.69335880	     -5.16515851	     40.37980813	      0.70476060	     15.66022753	      4.85642624	    -10.28973638	      3.51182750	     79.49991038	      1.38753519	    -10.07135046
     15.43333333	      0.40092887	     -7.06524820	      1.94419559	      2.31036944	      1.00780474	      1.06119449	     22.26026063	      9.17120392	     -4.63211275	     41.72759155	      0.72828386	     17.15453272	      5.75224323	    -10.41958878	      3.93088963	     81.65155107	      1.42508841	     -9.56865302
     15.44000000	     -0.18006890	     -7.38994796	      1.84388446	      2.30829940	      1.00333102	      1.06112755	     22.63943643	      9.57656867	     -4.54547387	     43.04135152	      0.75121330	     18.78799179	      8.19937763	    -10.72360269	      4.52821538	     83.93096788	      1.46487173	     -8.46397986
     15.44666667	     -0.19138004	     -7.45716765	      1.71848508	      2.30615370	      1.00024239	      1.06106222	     22.25436551	      9.78162725	     -4.24081314	     44.11257655	      0.76990970	     20.06373941	      9.94721501	    -10.74445502	      4.96848462	     85.83631915	      1.49812639	     -7.45561495
     15.45333333	      0.12938515	     -7.47633021	      1.59900955	      2.30420054	      0.99812269	      1.06101378	     21.33506360	      9.95409982	     -3.90404416	     44.88672639	      0.78342117	     21.20747493	     11.26576034	    -10.78722264	      5.24547030	     87.43158494	      1.52596903	     -6.32392619
     15.46000000	     -0.16705112	     -7.44669978	      1.61298368	      2.30219307	      0.99572262	      1.06084508	     21.02945585	      9.95959510	     -3.78486390	     45.53491502	      0.79473419	     22.13887017	     13.38401311	    -10.72558453	      5.69751571	     88.94682009	      1.55241487	     -5.22772545
     15.46666667	      0.12485567	     -7.28799627	      1.52941987	      2.30044132	      0.99462852	      1.06085680	     19.88526646	      9.92433619	     -3.44477314	     45.88252711	      0.80080117	     23.00897537	     14.70023715	    -10.64299301	      5.80422863	     90.06667663	      1.57196005	     -4.13114190
     15.47333333	      0.20635593	     -7.08416315	      1.50536759	      2.29893306	      0.99384475	      1.06084308	     18.82070325	      9.77715611	     -3.25935842	     45.98139383	      0.80252672	     23.79060959	     16.23083741	    -10.52050515	      5.89806315	     90.96395894	      1.58762058	     -2.96071905
     15.48000000	      0.21721560	     -6.82725895	      1.51469083	      2.29748243	      0.99348784	      1.06079928	     17.72511647	      9.57610167	     -3.05359162	     45.87930562	      0.80074494	     24.44831135	     17.81794898	    -10.34279404	      5.93605352	     91.62783899	      1.59920748	     -1.94048054
     15.48666667	      0.14793910	     -6.51063303	      1.50467950	      2.29635790	      0.99359853	      1.06090906	     16.57305275	      9.30793375	     -2.88170426	     45.55097543	      0.79501450	     24.94949420	     19.41515159	    -10.16211635	      5.83212105	     92.02329234	      1.60610944	     -1.07986275
     15.49333333	      0.02467432	     -6.17229887	      1.46078558	      2.29533957	      0.99411598	      1.06101844	     15.38428301	      8.99866648	     -2.73658754	     45.04779774	      0.78623239	     25.32293102	     21.00349479	     -9.98873073	      5.59934819	     92.17977792	      1.60884063	     -0.34895548
     15.50000000	     -0.16840527	     -5.80758409	      1.43292596	      2.29451137	      0.99498087	      1.06114595	     14.17513824	      8.68793421	     -2.53961257	     44.37340031	      0.77446194	     25.63302373	     22.59378047	     -9.76222515	      5.32845890	     92.11059536	      1.60763316	      0.36294717
     15.50666667	     -0.40860611	     -5.41776830	      1.35950841	      2.29392414	      0.99632732	      1.06130423	     12.91326228	      8.34808392	     -2.31783808	     43.50910135	      0.75937707	     25.78370584	     24.12598986	     -9.53640841	      4.92841685	     91.77823084	      1.60183231	      0.97320446
     15.51333333	     -0.62629296	     -4.98391799	      1.22355091	      2.29367095	      0.99821215	      1.06154664	     11.52531163	      7.98357195	     -2.00810781	     42.47043311	      0.74124889	     25.73613656	     25.49032783	     -9.32641421	      4.33557523	     91.17276301	      1.59126490	      1.50630685
     15.52000000	     -0.25981673	     -4.41920583	      0.82504409	      2.29383967	      1.00138171	      1.06209819	      9.35871778	      7.52992435	     -1.39924057	     41.18373577	      0.71879179	     25.48798295	     25.92389264	     -9.19161214	      3.24572922	     90.17829284	      1.57390812	      2.04673589
     15.52666667	     -0.69944046	     -3.99388518	      0.66169305	      2.29407621	      1.00389621	      1.06230543	      8.10477786	      7.14274981	     -1.10127794	     39.88985021	      0.69620922	     24.93272087	     27.31560067	     -8.97741295	      2.54453793	     89.12379045	      1.55550359	      2.49087949
